#!OML:ASF X:\für Bonn\!DataBase\2005_08_11_Bastian_Final\c3d\Bastian.ASF
:FULLY-SPECIFIED
:DEGREES
81
root -3.1557 17.2016 2.68174 143.933 -16.0377 -167.118
lowerback 40.2215 -6.19808 2.749
upperback 13.1379 -11.7608 2.58786
thorax -4.25091 -7.96435 5.79606
lowerneck -11.6594 -5.64543 -5.26282
upperneck -7.51973 -5.69397 12.291
head 0.216463 -2.2095 4.35373
rclavicle -8.69683e-014 3.06128e-014
rhumerus -69.1867 42.0946 -124.019
rradius 38.8589
rwrist -39.7135
rhand -36.3199 1.19482
rfingers 7.12502
rthumb -9.4185 -28.5747
lclavicle -8.69683e-014 3.06128e-014
lhumerus 33.554 -27.4488 76.9988
lradius 94.1696
lwrist -12.6589
lhand -57.5463 -9.47069
lfingers 7.12502
lthumb -29.813 18.1503
rfemur -80.9428 -18.6558 34.8049
rtibia 131.622
rfoot -2.35188 5.90163
rtoes -10.7077
lfemur 23.6269 -1.87091 -10.4072
ltibia 27.8698
lfoot -10.3994 -14.0075
ltoes -7.58812
82
root -3.15882 17.2166 2.68664 144.417 -15.7192 -167.197
lowerback 39.5809 -6.13072 2.73631
upperback 13.0126 -11.5735 2.54309
thorax -4.22197 -7.81322 5.63147
lowerneck -11.5811 -5.61609 -5.14889
upperneck -7.4158 -5.6948 12.1893
head 0.226695 -2.2202 4.3038
rclavicle -1.95803e-014 -4.41302e-014
rhumerus -68.1412 42.1034 -122.736
rradius 38.949
rwrist -39.1423
rhand -36.2446 1.70505
rfingers 7.12502
rthumb -9.34579 -28.0678
lclavicle -1.95803e-014 -4.41302e-014
lhumerus 33.0702 -27.6262 76.6107
lradius 93.2264
lwrist -11.9627
lhand -57.2891 -9.55723
lfingers 7.12502
lthumb -29.5675 18.1075
rfemur -78.8996 -18.8229 34.1143
rtibia 131.044
rfoot -2.37558 6.49095
rtoes -10.6301
lfemur 23.2981 -1.76655 -10.4369
ltibia 27.7239
lfoot -10.4362 -13.7081
ltoes -7.79006
83
root -3.16182 17.2322 2.69077 144.888 -15.3857 -167.243
lowerback 38.923 -6.07 2.77761
upperback 12.881 -11.3717 2.49315
thorax -4.19759 -7.65185 5.42931
lowerneck -11.4412 -5.58577 -5.009
upperneck -7.34455 -5.69486 12.0958
head 0.217241 -2.23341 4.25366
rclavicle -9.93923e-016 -4.25399e-014
rhumerus -66.9726 41.9807 -121.327
rradius 39.0666
rwrist -38.5269
rhand -36.1463 2.12455
rfingers 7.12502
rthumb -9.25101 -27.6525
lclavicle -9.93923e-016 -4.25399e-014
lhumerus 32.5711 -27.885 76.1648
lradius 92.2202
lwrist -11.2251
lhand -57.0041 -9.7601
lfingers 7.12502
lthumb -29.2954 17.9525
rfemur -76.7318 -18.9273 33.4123
rtibia 130.343
rfoot -2.34508 7.04333
rtoes -10.3912
lfemur 23.0047 -1.65738 -10.4204
ltibia 27.5278
lfoot -10.4353 -13.4318
ltoes -7.96101
84
root -3.1642 17.2485 2.69341 145.365 -15.0624 -167.316
lowerback 38.2682 -6.00208 2.77121
upperback 12.7274 -11.1714 2.44661
thorax -4.18709 -7.48973 5.25817
lowerneck -11.1631 -5.55034 -4.96452
upperneck -7.2888 -5.70632 11.732
head 0.160307 -2.255 4.56516
rclavicle 2.14687e-014 3.49861e-014
rhumerus -65.8848 41.9066 -119.997
rradius 39.2393
rwrist -37.9817
rhand -36.1315 2.44437
rfingers 7.12502
rthumb -9.23668 -27.3333
lclavicle 2.14687e-014 3.49861e-014
lhumerus 31.9921 -28.1447 75.7406
lradius 91.143
lwrist -10.6387
lhand -56.712 -9.9274
lfingers 7.12502
lthumb -29.0165 17.8335
rfemur -74.4845 -18.9857 32.6743
rtibia 129.531
rfoot -2.2088 7.55558
rtoes -10.1105
lfemur 22.7328 -1.58711 -10.46
ltibia 27.2941
lfoot -10.4528 -13.0986
ltoes -8.22761
85
root -3.16618 17.2648 2.69546 145.836 -14.7041 -167.37
lowerback 37.5955 -5.93311 2.80114
upperback 12.5693 -10.9567 2.39773
thorax -4.17577 -7.31944 5.06075
lowerneck -10.891 -5.5222 -4.87655
upperneck -7.24841 -5.70825 11.6643
head 0.12038 -2.27467 4.52725
rclavicle -4.91992e-014 2.94201e-014
rhumerus -64.6652 41.7116 -118.53
rradius 39.4079
rwrist -37.361
rhand -36.0781 2.68065
rfingers 7.12502
rthumb -9.18516 -27.0993
lclavicle -4.91992e-014 2.94201e-014
lhumerus 31.3698 -28.4218 75.2955
lradius 89.9985
lwrist -10.2969
lhand -56.4297 -9.90334
lfingers 7.12502
lthumb -28.7468 17.9037
rfemur -72.1567 -18.9319 31.9539
rtibia 128.585
rfoot -1.99235 7.96329
rtoes -9.9268
lfemur 22.4825 -1.50307 -10.4591
ltibia 27.0392
lfoot -10.4308 -12.7809
ltoes -8.24107
86
root -3.16832 17.2799 2.69514 146.297 -14.3595 -167.46
lowerback 36.8983 -5.8574 2.8016
upperback 12.4342 -10.7545 2.32903
thorax -4.12487 -7.15951 4.85624
lowerneck -10.6475 -5.50432 -4.8321
upperneck -7.18822 -5.71649 11.6711
head 0.0972453 -2.29346 4.52422
rclavicle -8.41853e-014 6.32135e-014
rhumerus -63.4094 41.4994 -117.069
rradius 39.6166
rwrist -36.7936
rhand -36.1244 2.83839
rfingers 7.12502
rthumb -9.22985 -26.9396
lclavicle -8.41853e-014 6.32135e-014
lhumerus 30.7002 -28.6545 74.8992
lradius 88.7324
lwrist -10.2557
lhand -56.1493 -9.87766
lfingers 7.12502
lthumb -28.4789 17.9745
rfemur -69.7774 -18.8051 31.1429
rtibia 127.554
rfoot -1.72617 8.32879
rtoes -9.6318
lfemur 22.2649 -1.4199 -10.5051
ltibia 26.777
lfoot -10.4372 -12.4593
ltoes -8.43647
